<svg xmlns="http://www.w3.org/2000/svg" viewBox="0 0 64 64" role="img" aria-label="Dog vs cat favicon">
  <title>Dog vs Cat</title>
  <defs>
    <linearGradient id="bg" x1="0" y1="0" x2="1" y2="1">
      <stop offset="0" stop-color="#f8c38c"/>
      <stop offset="1" stop-color="#b8dcff"/>
    </linearGradient>
  </defs>
  <circle cx="32" cy="32" r="30" fill="url(#bg)"/>
  <path d="M32 4 A28 28 0 0 0 4 32 A28 28 0 0 0 32 60 Z" fill="#f3b176"/>
  <path d="M32 4 A28 28 0 0 1 60 32 A28 28 0 0 1 32 60 Z" fill="#b3d4fb"/>
  <path d="M14 18 L8 6 L26 12 Z" fill="#e49b63"/>
  <path d="M50 18 L38 12 L56 6 Z" fill="#9cc7f3"/>
  <circle cx="24" cy="30" r="3" fill="#2f2a25"/>
  <circle cx="40" cy="30" r="3" fill="#2f2a25"/>
  <path d="M32 34 L28 40 L36 40 Z" fill="#2f2a25"/>
  <path d="M20 38 C22 42 26 44 32 44 C38 44 42 42 44 38" fill="none" stroke="#2f2a25" stroke-width="2" stroke-linecap="round"/>
  <path d="M42 34 L56 30" stroke="#2f2a25" stroke-width="2" stroke-linecap="round"/>
  <path d="M42 38 L56 38" stroke="#2f2a25" stroke-width="2" stroke-linecap="round"/>
  <path d="M42 42 L56 46" stroke="#2f2a25" stroke-width="2" stroke-linecap="round"/>
</svg>
