<svg xmlns="http://www.w3.org/2000/svg" width="1200" height="630" viewBox="0 0 1200 630" role="img" aria-label="동물상 테스트 - 강아지상 vs 고양이상">
  <defs>
    <linearGradient id="bg" x1="0" y1="0" x2="1" y2="1">
      <stop offset="0" stop-color="#f8c38c"/>
      <stop offset="1" stop-color="#b8dcff"/>
    </linearGradient>
  </defs>
  <rect width="1200" height="630" fill="url(#bg)"/>
  <rect x="80" y="80" width="1040" height="470" rx="36" fill="rgba(255,255,255,0.78)"/>
  <g transform="translate(120 135)">
    <circle cx="210" cy="210" r="190" fill="#f3b176"/>
    <path d="M210 20 A190 190 0 0 0 20 210 A190 190 0 0 0 210 400 Z" fill="#e9a56c"/>
    <path d="M210 20 A190 190 0 0 1 400 210 A190 190 0 0 1 210 400 Z" fill="#b3d4fb"/>
    <path d="M105 90 L70 20 L180 70 Z" fill="#e49b63"/>
    <path d="M315 90 L240 70 L350 20 Z" fill="#9cc7f3"/>
    <circle cx="150" cy="195" r="18" fill="#2f2a25"/>
    <circle cx="270" cy="195" r="18" fill="#2f2a25"/>
    <path d="M210 215 L185 260 L235 260 Z" fill="#2f2a25"/>
    <path d="M135 255 C150 290 175 310 210 310 C245 310 270 290 285 255" fill="none" stroke="#2f2a25" stroke-width="12" stroke-linecap="round"/>
  </g>
  <g font-family="'Space Grotesk', 'IBM Plex Sans', sans-serif" fill="#1f2328">
    <text x="520" y="250" font-size="56" font-weight="700">동물상 테스트</text>
    <text x="520" y="320" font-size="38" font-weight="500">강아지상 vs 고양이상</text>
    <text x="520" y="380" font-size="28" font-weight="400">사진 업로드로 즉시 분석</text>
  </g>
</svg>
